<?xml version="1.0" encoding="utf-8"?>
<!-- Generator: Adobe Illustrator 19.2.1, SVG Export Plug-In . SVG Version: 6.00 Build 0)  -->
<svg version="1.1" id="图层_1" xmlns:sketch="http://www.bohemiancoding.com/sketch/ns"
	 xmlns="http://www.w3.org/2000/svg" xmlns:xlink="http://www.w3.org/1999/xlink" x="0px" y="0px" viewBox="0 0 104 36"
	 style="enable-background:new 0 0 104 36;" xml:space="preserve">
<style type="text/css">
	.st0{fill:#0C4B33;}
</style>
<title>logo-django</title>
<description>Created with Sketch (http://www.bohemiancoding.com/sketch)</description>
<g id="Page-1" sketch:type="MSPage">
	<g id="logo-django" transform="translate(-8.000000, -5.000000)" sketch:type="MSArtboardGroup">
		<path id="Shape" sketch:type="MSShapeGroup" class="st0" d="M20.3,5H26v26.1c-2.9,0.6-5.1,0.8-7.4,0.8c-7,0-10.6-3.1-10.6-9.1
			c0-5.7,3.8-9.5,9.8-9.5c0.9,0,1.6,0.1,2.5,0.3V5L20.3,5z M20.3,18.1c-0.7-0.2-1.2-0.3-1.9-0.3c-2.9,0-4.5,1.8-4.5,4.8
			c0,3,1.6,4.6,4.5,4.6c0.6,0,1.1,0,2-0.1V18.1L20.3,18.1z M35,13.7v13.1c0,4.5-0.3,6.7-1.3,8.5c-0.9,1.8-2.1,2.9-4.7,4.2L23.7,37
			c2.5-1.2,3.7-2.2,4.5-3.8c0.8-1.6,1.1-3.5,1.1-8.4V13.7H35z M29.3,5H35v5.8h-5.7V5z M38.4,15c2.5-1.2,4.9-1.7,7.5-1.7
			c2.9,0,4.8,0.8,5.7,2.3c0.5,0.8,0.6,1.9,0.6,4.3v11.4c-2.5,0.4-5.8,0.6-8.1,0.6c-4.8,0-6.9-1.6-6.9-5.3c0-4,2.8-5.8,9.8-6.4V19
			c0-1-0.5-1.4-2-1.4c-2.1,0-4.5,0.6-6.7,1.7L38.4,15z M47.3,23.9c-3.8,0.4-5,1-5,2.4c0,1.1,0.7,1.6,2.3,1.6c0.8,0,1.6-0.1,2.7-0.3
			L47.3,23.9L47.3,23.9z M55.1,14.6c3.4-0.9,6.1-1.3,8.9-1.3c2.9,0,5,0.7,6.3,1.9c1.2,1.2,1.6,2.5,1.6,5.3v11h-5.7V20.8
			c0-2.2-0.7-3-2.8-3c-0.8,0-1.5,0.1-2.6,0.4v13.4h-5.7V14.6z M74,34.7c2,1,4,1.5,6.1,1.5c3.7,0,5.3-1.5,5.3-5.1V31
			c-1.1,0.5-2.2,0.8-3.7,0.8c-5,0-8.2-3.3-8.2-8.4c0-6.4,4.7-10,13-10c2.4,0,4.7,0.3,7.4,0.8l-1.9,4.1c-1.5-0.3-0.1,0-1.3-0.2v0.6
			l0.1,2.4l0,3.1c0,0.8,0,1.5,0.1,2.3v1.5c0,4.8-0.4,7.1-1.6,9c-1.8,2.7-4.8,4.1-9.2,4.1c-2.2,0-4.1-0.3-6.1-1.1V34.7L74,34.7z
			 M85.3,17.9h-0.2h-0.4c-1.1,0-2.4,0.3-3.3,0.8c-1.4,0.8-2.1,2.2-2.1,4.1c0,2.8,1.4,4.4,3.9,4.4c0.8,0,1.4-0.1,2.1-0.4v-0.4v-1.5
			c0-0.7,0-1.4,0-2.2l0-2.6l0-1.9V17.9z M102.8,13.2c5.7,0,9.2,3.5,9.2,9.3c0,5.9-3.6,9.6-9.4,9.6c-5.7,0-9.2-3.5-9.2-9.3
			C93.4,16.9,97,13.2,102.8,13.2z M102.7,27.6c2.2,0,3.5-1.8,3.5-4.9c0-3.1-1.3-4.9-3.4-4.9c-2.3,0-3.5,1.8-3.5,4.9
			S100.5,27.6,102.7,27.6L102.7,27.6z"/>
	</g>
</g>
</svg>
